<svg xmlns="http://www.w3.org/2000/svg" viewBox="0 0 60 80" width="60" height="80">
<g fill="none" stroke="currentColor" stroke-width="1.6" stroke-linecap="round">
<path d="M0 20h14M0 40h14M0 60h14"/><path d="M14 20h10m0 0 14 8V12l-14 8zm14 0h10"/><path d="M38 12v16"/><path d="M14 40h10m0 0 14 8V32l-14 8zm14 0h10"/><path d="M38 32v16"/><path d="M14 60h10m0 0 14 8V52l-14 8zm14 0h10"/><path d="M38 52v16"/><path d="M48 20v40m0-20h12"/>
<path d="m44 12 6-6m-2 6 6-6" stroke-width="1.2"/><path d="m50 6-3 1 1 3z" fill="currentColor" stroke="none"/>
</g>
</svg>
